<svg version="1.1" id="Layer_1" xmlns="http://www.w3.org/2000/svg" xmlns:xlink="http://www.w3.org/1999/xlink" x="0px" y="0px"
	 width="100%" viewBox="0 0 750 419" enable-background="new 0 0 750 419" xml:space="preserve">
<path fill="#EDEDED" opacity="1.000000" stroke="none" 
	d="
M751.000000,145.000000 
	C751.000000,237.000000 751.000000,328.500000 751.000000,420.000000 
	C501.000000,420.000000 251.000000,420.000000 1.000000,420.000000 
	C1.000000,280.333344 1.000000,140.666672 1.000000,1.000000 
	C251.000000,1.000000 501.000000,1.000000 751.000000,1.000000 
	C751.000000,48.833332 751.000000,96.666664 751.000000,145.000000 
M540.500000,5.035179 
	C364.688049,5.035179 188.876129,5.034987 13.064193,5.035825 
	C5.396390,5.035861 4.863881,5.570039 4.863791,13.308851 
	C4.862265,144.459457 4.862206,275.610046 4.863889,406.760651 
	C4.863993,414.814667 5.382763,415.347290 13.293241,415.347351 
	C255.096939,415.349548 496.900635,415.349487 738.704346,415.347504 
	C746.758118,415.347412 747.136780,414.957031 747.136780,406.848267 
	C747.137329,275.864319 747.137329,144.880371 747.136841,13.896415 
	C747.136780,5.493802 746.694153,5.036479 738.475891,5.036242 
	C672.817261,5.034342 607.158630,5.035180 540.500000,5.035179 
z"/>
<path fill="#070907" opacity="1.000000" stroke="none" 
	d="
M541.000000,5.035179 
	C607.158630,5.035180 672.817261,5.034342 738.475891,5.036242 
	C746.694153,5.036479 747.136780,5.493802 747.136841,13.896415 
	C747.137329,144.880371 747.137329,275.864319 747.136780,406.848267 
	C747.136780,414.957031 746.758118,415.347412 738.704346,415.347504 
	C496.900635,415.349487 255.096939,415.349548 13.293241,415.347351 
	C5.382763,415.347290 4.863993,414.814667 4.863889,406.760651 
	C4.862206,275.610046 4.862265,144.459457 4.863791,13.308851 
	C4.863881,5.570039 5.396390,5.035861 13.064193,5.035825 
	C188.876129,5.034987 364.688049,5.035179 541.000000,5.035179 
M738.136292,280.500000 
	C738.136292,191.769577 738.136292,103.039139 738.136292,14.382838 
	C496.286621,14.382838 255.249146,14.382838 14.167538,14.382838 
	C14.167538,145.135147 14.167538,275.535034 14.167538,406.085327 
	C255.517929,406.085327 496.564423,406.085327 738.136353,406.085327 
	C738.136353,364.391785 738.136353,322.945892 738.136292,280.500000 
z"/>
<path fill="#A8D08D" opacity="1.000000" stroke="none" 
	d="
M738.136353,281.000000 
	C738.136353,322.945892 738.136353,364.391785 738.136353,406.085327 
	C496.564423,406.085327 255.517929,406.085327 14.167538,406.085327 
	C14.167538,275.535034 14.167538,145.135147 14.167538,14.382838 
	C255.249146,14.382838 496.286621,14.382838 738.136292,14.382838 
	C738.136292,103.039139 738.136292,191.769577 738.136353,281.000000 
M511.945740,118.497353 
	C508.289825,108.126175 504.866425,97.665092 500.902130,87.413170 
	C497.894592,79.635429 492.248901,74.994072 483.408081,74.929207 
	C474.550446,74.864220 468.553864,79.065742 464.837891,86.838364 
	C463.619110,89.387695 462.574036,92.033379 461.630829,94.699142 
	C445.453918,140.419067 429.307129,186.149658 413.144257,231.874573 
	C412.503540,233.687256 411.769348,235.466919 410.593384,238.523285 
	C409.445435,235.314102 408.752411,233.470276 408.123566,231.604843 
	C398.274170,202.388138 388.461975,173.158875 378.579620,143.953339 
	C372.276825,125.326469 366.202942,106.612045 359.397644,88.168900 
	C354.919556,76.032875 342.630341,71.614182 330.016907,76.605553 
	C320.686096,80.297920 318.006744,89.115562 322.407593,101.648956 
	C322.518005,101.963448 322.634857,102.275673 322.746124,102.589874 
	C337.318756,143.750580 351.879639,184.915466 366.468445,226.070450 
	C373.595581,246.176086 380.654633,266.307220 387.982574,286.339752 
	C391.489197,295.925873 398.460419,301.031372 408.958618,300.998749 
	C419.504272,300.965942 425.437256,296.973419 429.953033,286.466492 
	C430.741730,284.631500 431.412292,282.743195 432.079529,280.859009 
	C447.768372,236.557068 463.447235,192.251587 479.137695,147.950226 
	C479.874512,145.869843 480.700775,143.821121 481.947632,140.541840 
	C483.083893,143.449081 483.714783,144.930740 484.247620,146.446869 
	C490.215729,163.427811 496.157013,180.418167 502.128326,197.397964 
	C512.522644,226.954819 522.774963,256.563110 533.419739,286.029572 
	C537.304626,296.783600 543.652466,300.861298 554.095703,300.919403 
	C565.015808,300.980164 571.045166,296.898895 575.550415,286.309601 
	C576.528015,284.011749 577.362732,281.650391 578.198303,279.295227 
	C595.246033,231.238327 612.301575,183.184219 629.312866,135.114441 
	C633.754456,122.563576 638.594238,110.117966 642.274414,97.342667 
	C646.500183,82.673843 636.742676,72.657150 621.687805,75.258064 
	C615.670776,76.297569 611.129456,79.450821 608.436523,84.831062 
	C606.432678,88.834679 604.847046,93.076057 603.386414,97.318695 
	C587.653625,143.017487 571.984192,188.738068 556.288086,234.449493 
	C555.730896,236.072083 555.076782,237.661377 554.467896,239.266190 
	C554.088928,239.229858 553.709961,239.193527 553.330994,239.157196 
	C539.619568,199.184784 525.908203,159.212372 511.945740,118.497353 
M158.856644,203.642319 
	C152.365280,197.039169 145.873917,190.436005 139.360855,183.810776 
	C140.219864,182.721558 140.575333,182.157028 141.037796,181.700974 
	C155.630783,167.309814 170.248001,152.943192 184.831726,138.542648 
	C197.045547,126.482231 209.315186,114.475975 221.375137,102.263084 
	C227.248520,96.315208 228.754303,88.537834 225.826584,82.575058 
	C222.959152,76.735069 216.621048,74.237274 207.682251,75.149117 
	C198.936325,76.041283 192.770157,81.246216 186.924057,87.095520 
	C159.359131,114.675583 131.791565,142.253021 104.219368,169.825821 
	C102.961800,171.083435 101.650368,172.287186 99.205574,174.622681 
	C99.205574,171.429291 99.205574,169.693329 99.205574,167.957367 
	C99.205566,146.459259 99.217560,124.961128 99.194778,103.463036 
	C99.190544,99.465416 99.267014,95.448647 98.919327,91.474564 
	C98.266388,84.011597 94.610611,78.557182 87.287766,76.167969 
	C70.770706,70.778954 58.912846,79.236626 58.681629,96.458923 
	C58.670444,97.292046 58.678223,98.125427 58.678223,98.958687 
	C58.678234,158.120148 58.676071,217.281616 58.686378,276.443085 
	C58.686813,278.941467 58.626419,281.459351 58.899643,283.934479 
	C59.638088,290.624023 62.451778,296.059082 68.850876,299.029175 
	C84.201439,306.153992 98.553833,297.466553 99.158432,280.702606 
	C99.224464,278.871521 99.203568,277.036865 99.203766,275.203888 
	C99.206429,251.205994 99.205627,227.208115 99.205681,203.210220 
	C99.205688,201.482361 99.205688,199.754517 99.205688,198.026657 
	C99.987022,197.518158 100.768356,197.009659 101.549698,196.501175 
	C102.433266,198.133423 102.992287,200.088669 104.248070,201.350479 
	C132.462097,229.699722 160.735413,257.990112 189.050812,286.238159 
	C192.583420,289.762360 196.232590,293.219055 200.149216,296.298096 
	C207.020050,301.699585 214.915649,302.174591 222.895203,299.518250 
	C228.611191,297.615387 231.644394,293.196472 232.163849,287.080078 
	C232.741348,280.280182 229.405945,275.339905 224.920959,270.790741 
	C203.041885,248.598572 181.204529,226.365280 158.856644,203.642319 
M305.326477,261.221527 
	C298.132965,251.145004 280.869568,251.608429 273.000488,256.609131 
	C263.994019,262.332642 260.299103,274.698853 264.454559,285.871582 
	C268.043243,295.520416 276.951965,300.640167 288.919983,299.931641 
	C299.520569,299.304077 306.990356,293.312042 309.240570,283.265961 
	C310.932709,275.711334 310.392090,268.387787 305.326477,261.221527 
M652.732178,273.992157 
	C652.076233,284.347168 655.346313,292.755096 665.013245,297.659119 
	C673.469849,301.949158 685.873535,300.464111 692.372620,294.688080 
	C699.787476,288.098114 702.052734,274.811432 697.414856,265.113220 
	C693.043762,255.972946 683.577698,251.702957 671.605408,253.470963 
	C661.170349,255.011948 654.292419,262.225555 652.732178,273.992157 
z"/>
<path fill="#020302" opacity="1.000000" stroke="none" 
	d="
M512.071289,118.868652 
	C525.908203,159.212372 539.619568,199.184784 553.330994,239.157196 
	C553.709961,239.193527 554.088928,239.229858 554.467896,239.266190 
	C555.076782,237.661377 555.730896,236.072083 556.288086,234.449493 
	C571.984192,188.738068 587.653625,143.017487 603.386414,97.318695 
	C604.847046,93.076057 606.432678,88.834679 608.436523,84.831062 
	C611.129456,79.450821 615.670776,76.297569 621.687805,75.258064 
	C636.742676,72.657150 646.500183,82.673843 642.274414,97.342667 
	C638.594238,110.117966 633.754456,122.563576 629.312866,135.114441 
	C612.301575,183.184219 595.246033,231.238327 578.198303,279.295227 
	C577.362732,281.650391 576.528015,284.011749 575.550415,286.309601 
	C571.045166,296.898895 565.015808,300.980164 554.095703,300.919403 
	C543.652466,300.861298 537.304626,296.783600 533.419739,286.029572 
	C522.774963,256.563110 512.522644,226.954819 502.128326,197.397964 
	C496.157013,180.418167 490.215729,163.427811 484.247620,146.446869 
	C483.714783,144.930740 483.083893,143.449081 481.947632,140.541840 
	C480.700775,143.821121 479.874512,145.869843 479.137695,147.950226 
	C463.447235,192.251587 447.768372,236.557068 432.079529,280.859009 
	C431.412292,282.743195 430.741730,284.631500 429.953033,286.466492 
	C425.437256,296.973419 419.504272,300.965942 408.958618,300.998749 
	C398.460419,301.031372 391.489197,295.925873 387.982574,286.339752 
	C380.654633,266.307220 373.595581,246.176086 366.468445,226.070450 
	C351.879639,184.915466 337.318756,143.750580 322.746124,102.589874 
	C322.634857,102.275673 322.518005,101.963448 322.407593,101.648956 
	C318.006744,89.115562 320.686096,80.297920 330.016907,76.605553 
	C342.630341,71.614182 354.919556,76.032875 359.397644,88.168900 
	C366.202942,106.612045 372.276825,125.326469 378.579620,143.953339 
	C388.461975,173.158875 398.274170,202.388138 408.123566,231.604843 
	C408.752411,233.470276 409.445435,235.314102 410.593384,238.523285 
	C411.769348,235.466919 412.503540,233.687256 413.144257,231.874573 
	C429.307129,186.149658 445.453918,140.419067 461.630829,94.699142 
	C462.574036,92.033379 463.619110,89.387695 464.837891,86.838364 
	C468.553864,79.065742 474.550446,74.864220 483.408081,74.929207 
	C492.248901,74.994072 497.894592,79.635429 500.902130,87.413170 
	C504.866425,97.665092 508.289825,108.126175 512.071289,118.868652 
z"/>
<path fill="#020201" opacity="1.000000" stroke="none" 
	d="
M159.104523,203.894424 
	C181.204529,226.365280 203.041885,248.598572 224.920959,270.790741 
	C229.405945,275.339905 232.741348,280.280182 232.163849,287.080078 
	C231.644394,293.196472 228.611191,297.615387 222.895203,299.518250 
	C214.915649,302.174591 207.020050,301.699585 200.149216,296.298096 
	C196.232590,293.219055 192.583420,289.762360 189.050812,286.238159 
	C160.735413,257.990112 132.462097,229.699722 104.248070,201.350479 
	C102.992287,200.088669 102.433266,198.133423 101.549698,196.501175 
	C100.768356,197.009659 99.987022,197.518158 99.205688,198.026657 
	C99.205688,199.754517 99.205688,201.482361 99.205681,203.210220 
	C99.205627,227.208115 99.206429,251.205994 99.203766,275.203888 
	C99.203568,277.036865 99.224464,278.871521 99.158432,280.702606 
	C98.553833,297.466553 84.201439,306.153992 68.850876,299.029175 
	C62.451778,296.059082 59.638088,290.624023 58.899643,283.934479 
	C58.626419,281.459351 58.686813,278.941467 58.686378,276.443085 
	C58.676071,217.281616 58.678234,158.120148 58.678223,98.958687 
	C58.678223,98.125427 58.670444,97.292046 58.681629,96.458923 
	C58.912846,79.236626 70.770706,70.778954 87.287766,76.167969 
	C94.610611,78.557182 98.266388,84.011597 98.919327,91.474564 
	C99.267014,95.448647 99.190544,99.465416 99.194778,103.463036 
	C99.217560,124.961128 99.205566,146.459259 99.205574,167.957367 
	C99.205574,169.693329 99.205574,171.429291 99.205574,174.622681 
	C101.650368,172.287186 102.961800,171.083435 104.219368,169.825821 
	C131.791565,142.253021 159.359131,114.675583 186.924057,87.095520 
	C192.770157,81.246216 198.936325,76.041283 207.682251,75.149117 
	C216.621048,74.237274 222.959152,76.735069 225.826584,82.575058 
	C228.754303,88.537834 227.248520,96.315208 221.375137,102.263084 
	C209.315186,114.475975 197.045547,126.482231 184.831726,138.542648 
	C170.248001,152.943192 155.630783,167.309814 141.037796,181.700974 
	C140.575333,182.157028 140.219864,182.721558 139.360855,183.810776 
	C145.873917,190.436005 152.365280,197.039169 159.104523,203.894424 
z"/>
<path fill="#040403" opacity="1.000000" stroke="none" 
	d="
M305.550873,261.504761 
	C310.392090,268.387787 310.932709,275.711334 309.240570,283.265961 
	C306.990356,293.312042 299.520569,299.304077 288.919983,299.931641 
	C276.951965,300.640167 268.043243,295.520416 264.454559,285.871582 
	C260.299103,274.698853 263.994019,262.332642 273.000488,256.609131 
	C280.869568,251.608429 298.132965,251.145004 305.550873,261.504761 
z"/>
<path fill="#030403" opacity="1.000000" stroke="none" 
	d="
M652.778442,273.580170 
	C654.292419,262.225555 661.170349,255.011948 671.605408,253.470963 
	C683.577698,251.702957 693.043762,255.972946 697.414856,265.113220 
	C702.052734,274.811432 699.787476,288.098114 692.372620,294.688080 
	C685.873535,300.464111 673.469849,301.949158 665.013245,297.659119 
	C655.346313,292.755096 652.076233,284.347168 652.778442,273.580170 
z"/>
</svg>