<svg version="1.1" id="Layer_1" xmlns="http://www.w3.org/2000/svg" xmlns:xlink="http://www.w3.org/1999/xlink" x="0px" y="0px"
	 width="100%" viewBox="0 0 2999 2999" enable-background="new 0 0 2999 2999" xml:space="preserve">
<path fill="#020202" opacity="1.000000" stroke="none" 
	d="
M1682.000000,3002.000000 
	C1121.333374,3002.000000 561.666870,3002.000000 2.000225,3002.000000 
	C2.000150,2002.000244 2.000150,1002.000549 2.000075,2.000628 
	C1001.999512,2.000419 2001.999023,2.000419 3001.999023,2.000209 
	C3001.999268,1001.999329 3001.999268,2001.998657 3001.999512,3001.999023 
	C2562.333252,3002.000000 2122.666748,3002.000000 1682.000000,3002.000000 
M24.343895,298.999817 
	C24.343895,1192.462646 24.343895,2085.925537 24.343895,2979.453613 
	C1010.700928,2979.453613 1995.774048,2979.453613 2981.159912,2979.453613 
	C2981.159912,1994.071045 2981.159912,1009.306091 2981.159912,23.916561 
	C1995.606323,23.916561 1010.549133,23.916561 24.343897,23.916561 
	C24.343897,115.212059 24.343897,206.105927 24.343895,298.999817 
z"/>
<path fill="#A9D18E" opacity="1.000000" stroke="none" 
	d="
M24.343895,297.999817 
	C24.343897,206.105927 24.343897,115.212059 24.343897,23.916561 
	C1010.549133,23.916561 1995.606323,23.916561 2981.159912,23.916561 
	C2981.159912,1009.306091 2981.159912,1994.071045 2981.159912,2979.453613 
	C1995.774048,2979.453613 1010.700928,2979.453613 24.343895,2979.453613 
	C24.343895,2085.925537 24.343895,1192.462646 24.343895,297.999817 
M1792.736572,1285.640015 
	C1781.866089,1316.417847 1770.969116,1347.186401 1760.129517,1377.975098 
	C1714.558716,1507.414185 1669.008301,1636.860596 1623.424927,1766.295288 
	C1622.320190,1769.432373 1620.916382,1772.463867 1618.979370,1777.183594 
	C1616.968750,1771.702515 1615.634155,1768.307861 1614.469971,1764.855591 
	C1558.266602,1598.198364 1502.091553,1431.531616 1445.881958,1264.876587 
	C1420.012695,1188.177124 1394.101685,1111.491699 1368.155518,1034.818237 
	C1363.111084,1019.911377 1356.393555,1005.812500 1347.077637,993.035522 
	C1335.013306,976.489136 1319.209595,965.442810 1299.143066,961.013062 
	C1275.309692,955.751831 1251.403442,955.916382 1227.897583,962.527527 
	C1192.056885,972.608032 1170.826782,1001.841492 1171.384155,1039.120239 
	C1171.580933,1052.277832 1174.535400,1064.848022 1178.890015,1077.179077 
	C1225.469604,1209.077637 1272.006348,1340.991333 1318.600098,1472.884888 
	C1345.118530,1547.951050 1371.728638,1622.984619 1398.282715,1698.038208 
	C1432.835938,1795.701904 1467.396362,1893.363159 1501.899658,1991.044556 
	C1508.371582,2009.366943 1516.257690,2026.915283 1528.333862,2042.335205 
	C1540.882324,2058.358398 1556.957642,2068.943604 1576.617798,2074.284668 
	C1595.279297,2079.354004 1614.218750,2079.653320 1633.158081,2077.263672 
	C1661.270264,2073.716797 1682.921021,2059.688721 1698.264404,2035.705078 
	C1707.491211,2021.282593 1714.394897,2005.864258 1720.080322,1989.793579 
	C1756.181396,1887.748779 1792.314941,1785.715454 1828.471802,1683.690186 
	C1875.531738,1550.899536 1922.620728,1418.119019 1969.718506,1285.341797 
	C1970.712524,1282.539551 1971.968506,1279.830322 1973.771118,1275.454346 
	C1975.672485,1280.432373 1976.913452,1283.461670 1977.996094,1286.546631 
	C2035.226807,1449.637695 2092.451172,1612.731201 2149.659424,1775.830200 
	C2175.119629,1848.416626 2200.528320,1921.021118 2225.997314,1993.604492 
	C2232.430664,2011.938477 2240.677490,2029.326660 2252.955566,2044.595093 
	C2264.829590,2059.361328 2279.893066,2069.109619 2298.131592,2074.233398 
	C2314.440430,2078.815186 2331.040283,2079.223389 2347.713135,2078.014160 
	C2377.649902,2075.842041 2401.989258,2063.276855 2419.511963,2038.414795 
	C2429.381348,2024.411499 2436.543213,2009.100952 2442.272949,1993.011108 
	C2479.134521,1889.498535 2516.074463,1786.014038 2552.983398,1682.518311 
	C2625.234131,1479.920410 2697.495361,1277.326050 2769.697998,1074.710693 
	C2774.661377,1060.782715 2777.001953,1046.395142 2776.383057,1031.522217 
	C2775.113770,1001.030945 2755.792725,974.335266 2727.160400,963.582520 
	C2712.820557,958.197205 2697.975342,957.311829 2682.881104,957.739563 
	C2648.853027,958.703857 2622.404785,973.135681 2605.618652,1002.899597 
	C2597.979248,1016.445068 2591.512695,1030.901611 2586.446533,1045.610229 
	C2533.315430,1199.863403 2480.591064,1354.256348 2427.723145,1508.599976 
	C2397.077637,1598.067627 2366.379883,1687.517456 2335.677734,1776.965698 
	C2334.598389,1780.110962 2333.217529,1783.152832 2331.269043,1788.006714 
	C2329.325684,1782.630493 2328.151611,1779.526855 2327.077393,1776.389160 
	C2300.649658,1699.203613 2274.229736,1622.015259 2247.814209,1544.825562 
	C2191.102295,1379.104980 2134.409424,1213.378052 2077.661377,1047.669800 
	C2071.171631,1028.718750 2063.519287,1010.304871 2052.053223,993.667297 
	C2038.676636,974.257263 2020.707520,962.104309 1997.233398,958.873840 
	C1989.680054,957.834473 1981.947388,957.649292 1974.307373,957.766602 
	C1943.459961,958.240295 1919.234741,971.232788 1901.551270,996.609436 
	C1891.553833,1010.956116 1884.154541,1026.589844 1878.363770,1042.951416 
	C1849.916992,1123.327026 1821.672607,1203.774414 1792.736572,1285.640015 
M422.295074,1107.000122 
	C422.294342,1092.015747 422.580994,1077.023926 422.195587,1062.049561 
	C421.921997,1051.420410 421.669006,1040.648193 419.798309,1030.228516 
	C413.200500,993.479309 391.961945,969.711060 355.229187,961.057312 
	C333.516693,955.942078 311.537933,955.972900 289.826416,961.214355 
	C253.981995,969.867676 232.887985,993.030762 226.188232,1028.912109 
	C224.004532,1040.607056 223.533310,1052.757080 223.516724,1064.700684 
	C223.336945,1194.033691 223.403915,1323.367188 223.403870,1452.700439 
	C223.403824,1624.700439 223.355042,1796.700317 223.510513,1968.700195 
	C223.521317,1980.645020 224.035934,1992.763672 226.060196,2004.500610 
	C232.850006,2043.869019 258.411255,2069.725098 297.810638,2076.167969 
	C311.789978,2078.453613 326.436249,2078.747070 340.577850,2077.561523 
	C382.600769,2074.038818 410.855255,2048.670410 419.205658,2007.380249 
	C421.561707,1995.730225 422.151276,1983.559326 422.169006,1971.625122 
	C422.367310,1838.292236 422.294739,1704.958740 422.295135,1571.625488 
	C422.295135,1567.811768 422.295105,1563.998047 422.295105,1560.184326 
	C423.082581,1559.872803 423.870056,1559.561279 424.657532,1559.249756 
	C426.988678,1561.336182 429.423706,1563.318359 431.635620,1565.524170 
	C476.243225,1610.010498 520.853882,1654.493896 565.406860,1699.034912 
	C672.194092,1805.793823 778.855103,1912.679321 885.838318,2019.241455 
	C899.969727,2033.316895 915.494324,2046.027222 930.733826,2058.944824 
	C940.795959,2067.473877 952.718872,2072.832764 965.614197,2075.527832 
	C985.409912,2079.665039 1005.366333,2079.992676 1025.166870,2075.732910 
	C1065.687500,2067.015625 1089.427246,2031.539307 1082.532471,1990.754028 
	C1078.990845,1969.804443 1067.938599,1953.077515 1053.442017,1938.297485 
	C1013.529114,1897.604736 973.546204,1856.980835 933.561035,1816.359131 
	C831.376343,1712.547607 729.174622,1608.753052 626.984558,1504.946655 
	C624.492493,1502.415161 622.057739,1499.827393 618.724243,1496.358398 
	C622.386719,1493.106079 625.496399,1490.592773 628.325989,1487.796021 
	C728.129883,1389.144897 827.915527,1290.475098 927.684448,1191.788452 
	C960.625183,1159.205078 993.515991,1126.571411 1026.423950,1093.954956 
	C1039.142700,1081.348755 1049.281738,1067.119995 1054.698608,1049.799438 
	C1067.291138,1009.534546 1047.899292,965.816162 999.837097,959.151917 
	C964.333557,954.229004 931.268127,960.118103 902.277588,981.913513 
	C889.278748,991.686279 876.927429,1002.543823 865.428406,1014.054199 
	C721.721619,1157.902954 578.225342,1301.961792 434.673889,1445.965820 
	C432.556854,1448.089478 430.555511,1450.356934 428.249542,1452.252563 
	C426.942474,1453.327026 425.124878,1453.780518 422.295074,1455.087280 
	C422.295074,1338.817017 422.295074,1223.908691 422.295074,1107.000122 
z"/>
<path fill="#010101" opacity="1.000000" stroke="none" 
	d="
M1793.046631,1284.918213 
	C1821.672607,1203.774414 1849.916992,1123.327026 1878.363770,1042.951416 
	C1884.154541,1026.589844 1891.553833,1010.956116 1901.551270,996.609436 
	C1919.234741,971.232788 1943.459961,958.240295 1974.307373,957.766602 
	C1981.947388,957.649292 1989.680054,957.834473 1997.233398,958.873840 
	C2020.707520,962.104309 2038.676636,974.257263 2052.053223,993.667297 
	C2063.519287,1010.304871 2071.171631,1028.718750 2077.661377,1047.669800 
	C2134.409424,1213.378052 2191.102295,1379.104980 2247.814209,1544.825562 
	C2274.229736,1622.015259 2300.649658,1699.203613 2327.077393,1776.389160 
	C2328.151611,1779.526855 2329.325684,1782.630493 2331.269043,1788.006714 
	C2333.217529,1783.152832 2334.598389,1780.110962 2335.677734,1776.965698 
	C2366.379883,1687.517456 2397.077637,1598.067627 2427.723145,1508.599976 
	C2480.591064,1354.256348 2533.315430,1199.863403 2586.446533,1045.610229 
	C2591.512695,1030.901611 2597.979248,1016.445068 2605.618652,1002.899597 
	C2622.404785,973.135681 2648.853027,958.703857 2682.881104,957.739563 
	C2697.975342,957.311829 2712.820557,958.197205 2727.160400,963.582520 
	C2755.792725,974.335266 2775.113770,1001.030945 2776.383057,1031.522217 
	C2777.001953,1046.395142 2774.661377,1060.782715 2769.697998,1074.710693 
	C2697.495361,1277.326050 2625.234131,1479.920410 2552.983398,1682.518311 
	C2516.074463,1786.014038 2479.134521,1889.498535 2442.272949,1993.011108 
	C2436.543213,2009.100952 2429.381348,2024.411499 2419.511963,2038.414795 
	C2401.989258,2063.276855 2377.649902,2075.842041 2347.713135,2078.014160 
	C2331.040283,2079.223389 2314.440430,2078.815186 2298.131592,2074.233398 
	C2279.893066,2069.109619 2264.829590,2059.361328 2252.955566,2044.595093 
	C2240.677490,2029.326660 2232.430664,2011.938477 2225.997314,1993.604492 
	C2200.528320,1921.021118 2175.119629,1848.416626 2149.659424,1775.830200 
	C2092.451172,1612.731201 2035.226807,1449.637695 1977.996094,1286.546631 
	C1976.913452,1283.461670 1975.672485,1280.432373 1973.771118,1275.454346 
	C1971.968506,1279.830322 1970.712524,1282.539551 1969.718506,1285.341797 
	C1922.620728,1418.119019 1875.531738,1550.899536 1828.471802,1683.690186 
	C1792.314941,1785.715454 1756.181396,1887.748779 1720.080322,1989.793579 
	C1714.394897,2005.864258 1707.491211,2021.282593 1698.264404,2035.705078 
	C1682.921021,2059.688721 1661.270264,2073.716797 1633.158081,2077.263672 
	C1614.218750,2079.653320 1595.279297,2079.354004 1576.617798,2074.284668 
	C1556.957642,2068.943604 1540.882324,2058.358398 1528.333862,2042.335205 
	C1516.257690,2026.915283 1508.371582,2009.366943 1501.899658,1991.044556 
	C1467.396362,1893.363159 1432.835938,1795.701904 1398.282715,1698.038208 
	C1371.728638,1622.984619 1345.118530,1547.951050 1318.600098,1472.884888 
	C1272.006348,1340.991333 1225.469604,1209.077637 1178.890015,1077.179077 
	C1174.535400,1064.848022 1171.580933,1052.277832 1171.384155,1039.120239 
	C1170.826782,1001.841492 1192.056885,972.608032 1227.897583,962.527527 
	C1251.403442,955.916382 1275.309692,955.751831 1299.143066,961.013062 
	C1319.209595,965.442810 1335.013306,976.489136 1347.077637,993.035522 
	C1356.393555,1005.812500 1363.111084,1019.911377 1368.155518,1034.818237 
	C1394.101685,1111.491699 1420.012695,1188.177124 1445.881958,1264.876587 
	C1502.091553,1431.531616 1558.266602,1598.198364 1614.469971,1764.855591 
	C1615.634155,1768.307861 1616.968750,1771.702515 1618.979370,1777.183594 
	C1620.916382,1772.463867 1622.320190,1769.432373 1623.424927,1766.295288 
	C1669.008301,1636.860596 1714.558716,1507.414185 1760.129517,1377.975098 
	C1770.969116,1347.186401 1781.866089,1316.417847 1793.046631,1284.918213 
z"/>
<path fill="#000000" opacity="1.000000" stroke="none" 
	d="
M422.295074,1108.000244 
	C422.295074,1223.908691 422.295074,1338.817017 422.295074,1455.087280 
	C425.124878,1453.780518 426.942474,1453.327026 428.249542,1452.252563 
	C430.555511,1450.356934 432.556854,1448.089478 434.673889,1445.965820 
	C578.225342,1301.961792 721.721619,1157.902954 865.428406,1014.054199 
	C876.927429,1002.543823 889.278748,991.686279 902.277588,981.913513 
	C931.268127,960.118103 964.333557,954.229004 999.837097,959.151917 
	C1047.899292,965.816162 1067.291138,1009.534546 1054.698608,1049.799438 
	C1049.281738,1067.119995 1039.142700,1081.348755 1026.423950,1093.954956 
	C993.515991,1126.571411 960.625183,1159.205078 927.684448,1191.788452 
	C827.915527,1290.475098 728.129883,1389.144897 628.325989,1487.796021 
	C625.496399,1490.592773 622.386719,1493.106079 618.724243,1496.358398 
	C622.057739,1499.827393 624.492493,1502.415161 626.984558,1504.946655 
	C729.174622,1608.753052 831.376343,1712.547607 933.561035,1816.359131 
	C973.546204,1856.980835 1013.529114,1897.604736 1053.442017,1938.297485 
	C1067.938599,1953.077515 1078.990845,1969.804443 1082.532471,1990.754028 
	C1089.427246,2031.539307 1065.687500,2067.015625 1025.166870,2075.732910 
	C1005.366333,2079.992676 985.409912,2079.665039 965.614197,2075.527832 
	C952.718872,2072.832764 940.795959,2067.473877 930.733826,2058.944824 
	C915.494324,2046.027222 899.969727,2033.316895 885.838318,2019.241455 
	C778.855103,1912.679321 672.194092,1805.793823 565.406860,1699.034912 
	C520.853882,1654.493896 476.243225,1610.010498 431.635620,1565.524170 
	C429.423706,1563.318359 426.988678,1561.336182 424.657532,1559.249756 
	C423.870056,1559.561279 423.082581,1559.872803 422.295105,1560.184326 
	C422.295105,1563.998047 422.295135,1567.811768 422.295135,1571.625488 
	C422.294739,1704.958740 422.367310,1838.292236 422.169006,1971.625122 
	C422.151276,1983.559326 421.561707,1995.730225 419.205658,2007.380249 
	C410.855255,2048.670410 382.600769,2074.038818 340.577850,2077.561523 
	C326.436249,2078.747070 311.789978,2078.453613 297.810638,2076.167969 
	C258.411255,2069.725098 232.850006,2043.869019 226.060196,2004.500610 
	C224.035934,1992.763672 223.521317,1980.645020 223.510513,1968.700195 
	C223.355042,1796.700317 223.403824,1624.700439 223.403870,1452.700439 
	C223.403915,1323.367188 223.336945,1194.033691 223.516724,1064.700684 
	C223.533310,1052.757080 224.004532,1040.607056 226.188232,1028.912109 
	C232.887985,993.030762 253.981995,969.867676 289.826416,961.214355 
	C311.537933,955.972900 333.516693,955.942078 355.229187,961.057312 
	C391.961945,969.711060 413.200500,993.479309 419.798309,1030.228516 
	C421.669006,1040.648193 421.921997,1051.420410 422.195587,1062.049561 
	C422.580994,1077.023926 422.294342,1092.015747 422.295074,1108.000244 
z"/>
</svg>